<?xml version="1.0" standalone="no"?><svg xmlns="http://www.w3.org/2000/svg" viewBox="0 0 1440 320"><path fill="#a2d9ff" fill-opacity="1" d="M0,256L21.8,261.3C43.6,267,87,277,131,277.3C174.5,277,218,267,262,224C305.5,181,349,107,393,90.7C436.4,75,480,117,524,144C567.3,171,611,181,655,176C698.2,171,742,149,785,165.3C829.1,181,873,235,916,250.7C960,267,1004,245,1047,213.3C1090.9,181,1135,139,1178,128C1221.8,117,1265,139,1309,122.7C1352.7,107,1396,53,1418,26.7L1440,0L1440,320L1418.2,320C1396.4,320,1353,320,1309,320C1265.5,320,1222,320,1178,320C1134.5,320,1091,320,1047,320C1003.6,320,960,320,916,320C872.7,320,829,320,785,320C741.8,320,698,320,655,320C610.9,320,567,320,524,320C480,320,436,320,393,320C349.1,320,305,320,262,320C218.2,320,175,320,131,320C87.3,320,44,320,22,320L0,320Z"></path></svg>